<?xml version="1.0" encoding="UTF-8" standalone="no"?>
<!DOCTYPE svg PUBLIC "-//W3C//DTD SVG 1.1//EN" "http://www.w3.org/Graphics/SVG/1.1/DTD/svg11.dtd">
<svg width="100%" height="100%" viewBox="0 0 193 33" version="1.1" xmlns="http://www.w3.org/2000/svg" xml:space="preserve" xmlnsSerif="http://www.serif.com/" style="fill-rule:evenodd;clip-rule:evenodd;stroke-linejoin:round;stroke-miterlimit:1.41421;">
    <g transform="matrix(1,0,0,1,-8,-9)">
        <g>
            <path d="M183.9,34.6C183.9,34.4 184.1,34.2 184.3,34.2C184.5,34.2 184.7,34.4 184.7,34.6L184.7,41C184.7,41.2 184.5,41.4 184.3,41.4C184.1,41.4 183.9,41.2 183.9,41L183.9,34.6Z" style="fill:rgb(145,147,147);fill-rule:nonzero;"/>
            <path d="M186.7,34.6C186.7,34.4 186.9,34.2 187.1,34.2L187.2,34.2C187.4,34.2 187.5,34.3 187.6,34.4L191.9,39.9L191.9,34.6C191.9,34.4 192.1,34.2 192.3,34.2C192.5,34.2 192.7,34.4 192.7,34.6L192.7,41C192.7,41.2 192.5,41.4 192.3,41.4C192.1,41.4 192,41.3 191.9,41.2L187.5,35.6L187.5,41C187.5,41.2 187.3,41.4 187.1,41.4C186.9,41.4 186.7,41.2 186.7,41L186.7,34.6Z" style="fill:rgb(145,147,147);fill-rule:nonzero;"/>
            <path d="M194.4,37.8C194.4,35.8 195.9,34.1 198,34.1C199.1,34.1 199.9,34.5 200.5,35C200.6,35.1 200.7,35.2 200.7,35.3C200.7,35.5 200.5,35.7 200.3,35.7C200.2,35.7 200.1,35.6 200,35.6C199.5,35.1 198.8,34.8 198,34.8C196.4,34.8 195.3,36.1 195.3,37.7C195.3,39.3 196.5,40.6 198,40.6C198.9,40.6 199.5,40.3 200.1,39.7C200.2,39.6 200.3,39.6 200.4,39.6C200.6,39.6 200.8,39.8 200.8,40C200.8,40.1 200.7,40.2 200.7,40.3C200,40.9 199.2,41.3 198.1,41.3C195.9,41.4 194.4,39.8 194.4,37.8Z" style="fill:rgb(145,147,147);fill-rule:nonzero;"/>
        </g>
        <g>
            <g>
                <g>
                    <path d="M33.6,9.1C30.3,9.1 27.3,10.9 25.6,13.4C23.9,10.8 20.9,9.1 17.6,9.1C12.3,9.1 8,13.4 8,18.7C8,22.1 10.1,24.5 12.3,26.7L21,34.9C21.5,35.3 22.2,35 22.2,34.4L22.2,28C22.2,26.2 23.7,24.7 25.5,24.6C27.3,24.6 28.8,26.1 28.8,28L28.8,34.4C28.8,35 29.5,35.3 30,34.9L38.7,26.7C40.9,24.5 43,22 43,18.7C43.1,13.4 38.8,9.1 33.6,9.1ZM16.9,26C16.8,26.1 16.6,26.2 16.4,26.2C16.2,26.2 16.1,26.1 16,26C13.1,23.5 11.7,20.8 11.7,18.1C11.7,15.8 13.1,13.2 15,12C15.3,11.8 15.7,11.9 15.9,12.2C16.1,12.5 16,12.9 15.7,13.1C14.2,14 13.1,16.2 13.1,18.1C13.1,20.4 14.4,22.7 17,25C17.1,25.3 17.1,25.8 16.9,26ZM21.1,23.6C21,23.8 20.8,23.9 20.5,23.9C20.4,23.9 20.3,23.9 20.2,23.8C18.3,22.7 17,20.6 17,18.5C17,16.5 18.1,14.7 19.9,13.8C20.2,13.6 20.6,13.8 20.8,14.1C21,14.4 20.8,14.8 20.5,15C19.2,15.7 18.3,17.1 18.3,18.6C18.3,20.2 19.3,21.9 20.9,22.8C21.2,22.8 21.3,23.2 21.1,23.6ZM25.6,21.9C24,21.9 22.7,20.6 22.7,19C22.7,17.4 24,16.1 25.6,16.1C27.2,16.1 28.5,17.4 28.5,19C28.4,20.6 27.1,21.9 25.6,21.9ZM30.9,23.8C30.8,23.9 30.7,23.9 30.6,23.9C30.4,23.9 30.1,23.8 30,23.6C29.8,23.3 29.9,22.9 30.3,22.7C31.8,21.8 32.9,20.2 32.9,18.5C32.9,17 32.1,15.6 30.7,14.9C30.4,14.7 30.3,14.3 30.4,14C30.6,13.7 31,13.6 31.3,13.7C33.1,14.6 34.2,16.4 34.2,18.4C34.1,20.6 32.8,22.7 30.9,23.8ZM39.5,18.2C39.5,20.9 38.1,23.5 35.2,26.1C35.1,26.2 34.9,26.3 34.8,26.3C34.6,26.3 34.4,26.2 34.3,26.1C34.1,25.8 34.1,25.4 34.4,25.2C37,22.9 38.3,20.6 38.3,18.3C38.3,16.4 37.1,14.3 35.7,13.3C35.4,13.1 35.3,12.7 35.5,12.4C35.7,12.1 36.1,12 36.4,12.2C38.1,13.3 39.5,15.9 39.5,18.2Z" style="fill:rgb(198,0,43);fill-rule:nonzero;"/>
                    <g>
                        <path d="M54.9,15.1L59.8,15.1L59.8,21.7L66,21.7L66,15.1L70.9,15.1L70.9,32.7L66,32.7L66,26L59.8,26L59.8,32.7L54.9,32.7L54.9,15.1Z" style="fill:rgb(17,24,32);fill-rule:nonzero;"/>
                        <path d="M72.2,25.9C72.2,21.9 75,18.8 79,18.8C83.7,18.8 85.8,22.2 85.8,26.2C85.8,26.5 85.8,26.9 85.8,27.2L76.7,27.2C77.1,28.7 78.2,29.4 79.6,29.4C80.7,29.4 81.6,29 82.6,28L85.2,30.2C83.9,31.9 82,33 79.3,33C75.3,33 72.2,30.1 72.2,25.9ZM81.5,24.7C81.5,23.2 80.4,22.3 79.1,22.3C77.8,22.3 76.9,23.3 76.7,24.7L81.5,24.7Z" style="fill:rgb(17,24,32);fill-rule:nonzero;"/>
                        <path d="M102,19.1L106.8,19.1L106.8,21.8C107.6,19.9 108.8,18.7 111.1,18.8L111.1,23.8L110.7,23.8C108.2,23.8 106.8,25.2 106.8,28.4L106.8,32.6L102,32.6L102,19.1Z" style="fill:rgb(17,24,32);fill-rule:nonzero;"/>
                        <path d="M114,28.4L114,22.9L112.4,22.9L112.4,19.1L114,19.1L114,15.7L118.8,15.7L118.8,19.1L122,19.1L122,22.9L118.8,22.9L118.8,27.5C118.8,28.5 119.2,28.9 120.1,28.9C120.7,28.9 121.3,28.7 121.9,28.5L121.9,32.2C121,32.7 119.9,33 118.6,33C115.7,32.9 114,31.7 114,28.4Z" style="fill:rgb(17,24,32);fill-rule:nonzero;"/>
                        <circle cx="50.2" cy="16.4" r="2.5" style="fill:rgb(17,24,32);"/>
                        <path d="M100.1,25.8C100.1,21.6 97.1,18.8 92.8,18.8C90.1,18.8 88.2,19.9 86.9,21.6L89.5,23.8C90.5,22.8 91.4,22.4 92.5,22.4C94,22.4 95,23.1 95.4,24.6L95.4,24.7L92.3,24.7C88.4,24.8 86.4,26.2 86.4,29C86.4,31.7 88.3,33.1 91.5,33.1C93.3,33.1 94.6,32.4 95.5,31.5L95.5,32.8L100,32.8L100,26C100.1,26 100.1,25.9 100.1,25.8ZM93,29.9C91.8,30 91,29.2 91,28.4C91,27.6 91.7,27.1 92.9,27.1L95.6,27.1L95.6,27.2C95.6,27.9 95.4,29.8 93,29.9Z" style="fill:rgb(17,24,32);fill-rule:nonzero;"/>
                    </g>
                </g>
                <g>
                    <path d="M124.5,16.3C124.5,15.8 124.9,15.3 125.5,15.3L125.7,15.3C126.1,15.3 126.4,15.5 126.6,15.8L132.8,25.1L139,15.8C139.2,15.5 139.5,15.3 139.9,15.3L140.1,15.3C140.6,15.3 141.1,15.7 141.1,16.3L141.1,31.8C141.1,32.3 140.7,32.8 140.1,32.8C139.6,32.8 139.1,32.3 139.1,31.8L139.1,18.9L133.6,27C133.4,27.3 133.1,27.5 132.8,27.5C132.5,27.5 132.2,27.3 132,27L126.5,18.9L126.5,31.8C126.5,32.3 126.1,32.8 125.5,32.8C125,32.8 124.6,32.4 124.6,31.8L124.5,16.3Z" style="fill:rgb(144,146,149);fill-rule:nonzero;"/>
                    <path d="M144.9,31.7L144.9,16.4C144.9,15.9 145.3,15.4 145.9,15.4L156.6,15.4C157.1,15.4 157.5,15.8 157.5,16.3C157.5,16.8 157.1,17.2 156.6,17.2L146.9,17.2L146.9,23.1L155.5,23.1C156,23.1 156.4,23.5 156.4,24C156.4,24.5 156,24.9 155.5,24.9L146.9,24.9L146.9,30.9L156.8,30.9C157.3,30.9 157.7,31.3 157.7,31.8C157.7,32.3 157.3,32.7 156.8,32.7L146,32.7C145.4,32.7 144.9,32.2 144.9,31.7" style="fill:rgb(144,146,149);fill-rule:nonzero;"/>
                    <path d="M166.5,30.9C170.9,30.9 173.6,27.9 173.6,24.1C173.6,20.3 170.8,17.3 166.5,17.3L162.5,17.3L162.5,30.9L166.5,30.9ZM160.5,16.4C160.5,15.9 160.9,15.4 161.5,15.4L166.5,15.4C171.9,15.4 175.7,19.1 175.7,24C175.7,28.9 172,32.6 166.5,32.6L161.5,32.6C161,32.6 160.5,32.2 160.5,31.6L160.5,16.4Z" style="fill:rgb(144,146,149);fill-rule:nonzero;"/>
                    <path d="M179.1,16.3C179.1,15.8 179.5,15.3 180.1,15.3C180.6,15.3 181.1,15.7 181.1,16.3L181.1,31.8C181.1,32.3 180.7,32.8 180.1,32.8C179.6,32.8 179.1,32.4 179.1,31.8L179.1,16.3Z" style="fill:rgb(144,146,149);fill-rule:nonzero;"/>
                    <path d="M196.2,26.3L192.2,17.5L188.2,26.3L196.2,26.3ZM184,31.4L191,16.1C191.2,15.6 191.6,15.2 192.2,15.2L192.3,15.2C192.9,15.2 193.3,15.5 193.5,16.1L200.5,31.4C200.6,31.6 200.6,31.7 200.6,31.9C200.6,32.4 200.2,32.8 199.7,32.8C199.2,32.8 198.9,32.5 198.7,32.1L196.9,28.1L187.4,28.1L185.6,32.1C185.4,32.5 185.1,32.8 184.7,32.8C184.2,32.8 183.8,32.4 183.8,31.9C183.9,31.7 183.9,31.6 184,31.4" style="fill:rgb(144,146,149);fill-rule:nonzero;"/>
                </g>
            </g>
            <path d="M50.3,20.1L50.1,20.1C48.7,20.1 47.6,21.2 47.6,22.6L47.6,32.7L52.8,32.7L52.8,22.6C52.8,21.2 51.6,20.1 50.3,20.1Z" style="fill:rgb(17,24,32);fill-rule:nonzero;"/>
        </g>
    </g>
</svg>
